<svg width="368" height="368" viewBox="0 0 368 368" fill="none" xmlns="http://www.w3.org/2000/svg">
<path d="M257.709 118L261 121.608C255.813 132.834 246.637 138.446 233.471 138.446H218.51C218.111 143.859 217.811 152.779 217.612 165.207C217.612 177.636 217.612 194.273 217.612 215.121C217.612 227.349 220.804 233.462 227.187 233.462C229.182 233.462 232.773 232.861 237.959 231.658C243.146 230.255 248.532 226.747 254.118 221.134C256.911 221.335 258.706 222.938 259.504 225.945C257.31 228.952 254.218 232.36 250.228 236.169C246.238 239.977 241.849 243.285 237.062 246.091C232.474 248.697 227.786 250 222.998 250C213.423 250 206.94 247.795 203.548 243.385C200.356 238.774 198.761 230.756 198.761 219.33C198.761 210.51 198.86 199.185 199.06 185.353C199.259 171.321 199.559 155.686 199.958 138.446H162.853C162.853 174.729 159.861 202.392 153.876 221.435C147.892 240.478 137.519 250 122.757 250C119.565 250 116.772 249.198 114.378 247.595C112.184 245.991 111.087 243.385 111.087 239.777C111.087 236.97 112.184 234.465 114.378 232.26C116.573 229.854 119.565 228.15 123.355 227.148C126.547 226.346 129.539 225.043 132.332 223.239C135.324 221.435 137.918 217.827 140.112 212.415C142.306 206.802 144.002 198.182 145.199 186.556C146.595 174.929 147.293 158.893 147.293 138.446H141.907C134.526 138.446 128.542 140.251 123.954 143.859C119.565 147.467 115.974 153.581 113.181 162.2C111.586 162.802 109.99 162.902 108.394 162.501C106.997 161.9 106.199 160.998 106 159.795C106.798 153.781 108.593 147.567 111.386 141.153C114.378 134.538 118.767 129.025 124.552 124.615C130.337 120.205 137.918 118 147.293 118H257.709Z" fill="white"/>
<path d="M359 184C359 87.3502 280.65 9 184 9C87.3502 9 9 87.3502 9 184C9 280.65 87.3502 359 184 359V368C82.3796 368 0 285.62 0 184C0 82.3796 82.3796 0 184 0C285.62 0 368 82.3796 368 184C368 285.62 285.62 368 184 368V359C280.65 359 359 280.65 359 184Z" fill="white"/>
<path d="M207.265 319C208.114 318.849 208.926 319.411 209.083 320.259L214.251 348.229C214.552 349.858 213.475 351.426 211.841 351.698C193.46 354.759 174.699 354.768 156.316 351.725C154.681 351.454 153.603 349.887 153.902 348.258L158.784 321.7C159.083 320.07 160.647 318.996 162.282 319.259C177.184 321.661 192.385 321.574 207.265 319Z" fill="white"/>
<path d="M207.265 49.9997C208.114 50.1515 208.926 49.5893 209.083 48.7415L214.251 20.771C214.552 19.1417 213.475 17.5742 211.841 17.302C193.46 14.2413 174.699 14.2321 156.316 17.2755C154.681 17.5461 153.603 19.1127 153.902 20.7422L158.784 47.3001C159.083 48.9296 160.647 50.0044 162.282 49.7408C177.184 47.3392 192.385 47.4257 207.265 49.9997Z" fill="white"/>
<path d="M318.5 207.765C318.349 208.614 318.911 209.426 319.759 209.583L347.729 214.751C349.358 215.052 350.926 213.975 351.198 212.341C354.259 193.96 354.268 175.199 351.225 156.816C350.954 155.181 349.387 154.103 347.758 154.402L321.2 159.284C319.57 159.583 318.496 161.147 318.759 162.782C321.161 177.684 321.074 192.885 318.5 207.765Z" fill="white"/>
<path d="M49.4997 207.765C49.6515 208.614 49.0893 209.426 48.2415 209.583L20.271 214.751C18.6418 215.052 17.0742 213.975 16.802 212.341C13.7413 193.96 13.7321 175.199 16.7755 156.816C17.0461 155.181 18.6127 154.103 20.2422 154.402L46.8001 159.284C48.4296 159.583 49.5044 161.147 49.2408 162.782C46.8392 177.684 46.9257 192.885 49.4997 207.765Z" fill="white"/>
<path d="M309 184C309 114.964 253.036 59 184 59C114.964 59 59 114.964 59 184C59 253.036 114.964 309 184 309V316C111.098 316 52 256.902 52 184C52 111.098 111.098 52 184 52C256.902 52 316 111.098 316 184C316 256.902 256.902 316 184 316V309C253.036 309 309 253.036 309 184Z" fill="white"/>
</svg>
