<svg width="1340" height="368" viewBox="0 0 1340 368" fill="none" xmlns="http://www.w3.org/2000/svg">
<path d="M1229.71 118L1233 121.608C1227.81 132.834 1218.64 138.446 1205.47 138.446H1190.51C1190.11 143.859 1189.81 152.779 1189.61 165.207C1189.61 177.636 1189.61 194.273 1189.61 215.121C1189.61 227.349 1192.8 233.462 1199.19 233.462C1201.18 233.462 1204.77 232.861 1209.96 231.658C1215.15 230.255 1220.53 226.747 1226.12 221.134C1228.91 221.335 1230.71 222.938 1231.5 225.945C1229.31 228.952 1226.22 232.36 1222.23 236.169C1218.24 239.977 1213.85 243.285 1209.06 246.091C1204.47 248.697 1199.79 250 1195 250C1185.42 250 1178.94 247.795 1175.55 243.385C1172.36 238.774 1170.76 230.756 1170.76 219.33C1170.76 210.51 1170.86 199.185 1171.06 185.353C1171.26 171.321 1171.56 155.686 1171.96 138.446H1134.85C1134.85 174.729 1131.86 202.392 1125.88 221.435C1119.89 240.478 1109.52 250 1094.76 250C1091.56 250 1088.77 249.198 1086.38 247.595C1084.18 245.991 1083.09 243.385 1083.09 239.777C1083.09 236.97 1084.18 234.465 1086.38 232.26C1088.57 229.854 1091.56 228.15 1095.36 227.148C1098.55 226.346 1101.54 225.043 1104.33 223.239C1107.32 221.435 1109.92 217.827 1112.11 212.415C1114.31 206.802 1116 198.182 1117.2 186.556C1118.6 174.929 1119.29 158.893 1119.29 138.446H1113.91C1106.53 138.446 1100.54 140.251 1095.95 143.859C1091.56 147.467 1087.97 153.581 1085.18 162.2C1083.59 162.802 1081.99 162.902 1080.39 162.501C1079 161.9 1078.2 160.998 1078 159.795C1078.8 153.781 1080.59 147.567 1083.39 141.153C1086.38 134.538 1090.77 129.025 1096.55 124.615C1102.34 120.205 1109.92 118 1119.29 118H1229.71Z" fill="currentColor"/>
<path d="M1331 184C1331 87.3502 1252.65 9 1156 9C1059.35 9 981 87.3502 981 184C981 280.65 1059.35 359 1156 359V368C1054.38 368 972 285.62 972 184C972 82.3796 1054.38 0 1156 0C1257.62 0 1340 82.3796 1340 184C1340 285.62 1257.62 368 1156 368V359C1252.65 359 1331 280.65 1331 184Z" fill="currentColor"/>
<path d="M1179.27 319C1180.11 318.849 1180.93 319.411 1181.08 320.259L1186.25 348.229C1186.55 349.858 1185.48 351.426 1183.84 351.698C1165.46 354.759 1146.7 354.768 1128.32 351.725C1126.68 351.454 1125.6 349.887 1125.9 348.258L1130.78 321.7C1131.08 320.07 1132.65 318.996 1134.28 319.259C1149.18 321.661 1164.39 321.574 1179.27 319Z" fill="currentColor"/>
<path d="M1179.27 49.9997C1180.11 50.1515 1180.93 49.5893 1181.08 48.7415L1186.25 20.771C1186.55 19.1417 1185.48 17.5742 1183.84 17.302C1165.46 14.2413 1146.7 14.2321 1128.32 17.2755C1126.68 17.5461 1125.6 19.1127 1125.9 20.7422L1130.78 47.3001C1131.08 48.9296 1132.65 50.0044 1134.28 49.7408C1149.18 47.3392 1164.39 47.4257 1179.27 49.9997Z" fill="currentColor"/>
<path d="M1290.5 207.765C1290.35 208.614 1290.91 209.426 1291.76 209.583L1319.73 214.751C1321.36 215.052 1322.93 213.975 1323.2 212.341C1326.26 193.96 1326.27 175.199 1323.22 156.816C1322.95 155.181 1321.39 154.103 1319.76 154.402L1293.2 159.284C1291.57 159.583 1290.5 161.147 1290.76 162.782C1293.16 177.684 1293.07 192.885 1290.5 207.765Z" fill="currentColor"/>
<path d="M1021.5 207.765C1021.65 208.614 1021.09 209.426 1020.24 209.583L992.271 214.751C990.642 215.052 989.074 213.975 988.802 212.341C985.741 193.96 985.732 175.199 988.775 156.816C989.046 155.181 990.613 154.103 992.242 154.402L1018.8 159.284C1020.43 159.583 1021.5 161.147 1021.24 162.782C1018.84 177.684 1018.93 192.885 1021.5 207.765Z" fill="currentColor"/>
<path d="M1281 184C1281 114.964 1225.04 59 1156 59C1086.96 59 1031 114.964 1031 184C1031 253.036 1086.96 309 1156 309V316C1083.1 316 1024 256.902 1024 184C1024 111.098 1083.1 52 1156 52C1228.9 52 1288 111.098 1288 184C1288 256.902 1228.9 316 1156 316V309C1225.04 309 1281 253.036 1281 184Z" fill="currentColor"/>
<path d="M865.298 277.56L802.858 190.48C800.805 190.667 798.752 190.76 796.698 190.76C794.645 190.76 792.872 190.76 791.378 190.76C790.258 190.76 788.951 190.853 787.458 191.04C785.965 191.04 784.658 190.947 783.538 190.76V245.08C783.538 256.653 784.658 263.933 786.898 266.92C790.631 270.653 795.951 272.52 802.858 272.52L809.578 273.08C809.578 273.267 809.578 273.92 809.578 275.04C809.765 276.16 809.858 276.907 809.858 277.28H782.978C780.925 277.28 778.778 277.373 776.538 277.56C774.485 277.56 772.432 277.56 770.378 277.56H730.898C730.898 277.187 730.805 276.813 730.618 276.44C730.618 275.88 730.618 275.507 730.618 275.32V272.8L737.618 272.52C741.538 272.52 744.898 271.867 747.698 270.56C750.498 269.253 752.738 267.48 754.418 265.24C756.285 262.253 757.218 255.533 757.218 245.08V124.96C757.218 113.2 756.005 105.827 753.578 102.84C750.218 99.1066 744.898 97.2399 737.618 97.2399H730.898C730.898 96.8666 730.805 96.3999 730.618 95.8399C730.618 95.2799 730.618 94.9066 730.618 94.7199V92.1999L798.098 91.9199C807.618 91.9199 816.205 92.3866 823.858 93.3199C831.511 94.2533 837.765 95.4666 842.618 96.9599C845.978 98.6399 849.991 100.88 854.658 103.68C859.325 106.293 862.965 109.093 865.578 112.08C872.112 120.853 875.378 130.093 875.378 139.8C875.378 151 871.738 160.8 864.458 169.2C857.178 177.413 845.605 183.387 829.738 187.12L867.818 240.88C872.112 246.293 876.125 251.147 879.858 255.44C883.591 259.733 887.138 263 890.498 265.24H890.218C893.205 266.733 896.751 268.227 900.858 269.72C904.965 271.213 909.631 272.427 914.858 273.36C914.858 273.547 914.858 274.2 914.858 275.32C915.045 276.253 915.138 276.907 915.138 277.28L865.298 277.56ZM791.098 182.36C799.685 182.36 807.431 181.333 814.338 179.28C821.245 177.227 826.845 174.427 831.138 170.88C840.098 163.04 844.578 153.333 844.578 141.76C844.578 130 841.032 120.387 833.938 112.92C830.205 109.56 825.912 107.04 821.058 105.36C816.205 103.493 810.698 102.56 804.538 102.56C802.111 102.56 799.031 102.747 795.298 103.12C791.751 103.493 787.831 104.147 783.538 105.08V182.36H791.098Z" fill="currentColor"/>
<path d="M719.327 232.76L718.487 231.92L717.647 233.6L716.527 232.2L718.207 231.92L717.927 231.36C718.113 231.36 718.207 231.36 718.207 231.36C718.393 231.173 718.58 231.08 718.767 231.08L718.487 231.92L719.047 231.64L719.327 232.76ZM613.207 175.64H653.807C664.26 175.64 671.353 174.053 675.087 170.88C679.567 166.4 682.273 159.213 683.207 149.32H687.967V170.88C687.967 172.56 687.967 174.24 687.967 175.92C688.153 177.6 688.247 179.28 688.247 180.96V212.88H683.207L682.927 209.8V210.08C682.367 206.72 681.713 203.733 680.967 201.12C680.407 198.507 679.94 196.733 679.567 195.8C677.887 192.627 675.087 190.107 671.167 188.24C667.433 186.373 661.647 185.44 653.807 185.44H613.207V247.04C613.207 250.4 613.3 253.387 613.487 256C613.673 258.427 613.953 260.293 614.327 261.6C615.26 262.907 617.127 264.68 619.927 266.92C620.487 267.48 623.287 267.76 628.327 267.76H660.247C665.287 267.76 669.673 267.573 673.407 267.2C677.14 266.827 680.407 266.267 683.207 265.52H682.927C687.407 264.027 691.887 261.04 696.367 256.56C699.353 253.573 702.247 250.027 705.047 245.92C707.847 241.627 710.74 236.773 713.727 231.36H719.047L711.207 254.6L705.327 271.96L703.367 277.28H654.367C650.633 277.28 646.9 277.373 643.167 277.56C639.433 277.56 635.607 277.56 631.687 277.56H561.127C561.127 277.187 561.033 276.813 560.847 276.44C560.847 275.88 560.847 275.507 560.847 275.32V272.8L567.287 272.52C569.153 272.52 571.02 272.24 572.887 271.68C574.94 270.933 577.18 270.093 579.607 269.16L579.327 269.44C582.127 267.573 584.18 265.24 585.487 262.44C586.607 259.64 587.167 253.853 587.167 245.08V124.4C587.167 112.267 585.953 104.987 583.527 102.56C580.167 99.0133 574.753 97.2399 567.287 97.2399H561.127C561.127 96.8666 561.033 96.3999 560.847 95.8399C560.847 95.2799 560.847 94.9066 560.847 94.7199V92.1999H649.327C653.06 92.1999 656.7 92.1999 660.247 92.1999C663.98 92.0133 667.62 91.9199 671.167 91.9199H703.087L704.207 111.24C704.58 113.667 704.767 116.467 704.767 119.64C704.953 122.627 705.14 125.427 705.327 128.04V132.8H700.287L699.167 129.16C698.233 125.427 697.3 122.067 696.367 119.08C695.433 116.093 694.5 113.853 693.567 112.36C692.447 111.053 690.86 109.653 688.807 108.16C686.94 106.48 685.167 105.173 683.487 104.24C681.433 103.68 678.727 103.213 675.367 102.84C672.007 102.467 668.367 102.28 664.447 102.28H613.207V175.64Z" fill="currentColor"/>
<path d="M408.616 184.88L408.336 183.48L407.496 182.36L410.016 181.24L408.616 184.88ZM410.016 245.08C410.016 253.667 410.483 259.64 411.416 263C412.349 264.12 413.283 265.24 414.216 266.36C415.149 267.48 416.176 268.413 417.296 269.16C420.843 271.4 425.043 272.52 429.896 272.52L435.776 273.08C435.776 273.267 435.776 273.92 435.776 275.04C435.963 276.16 436.056 276.907 436.056 277.28H408.896C406.843 277.28 404.789 277.373 402.736 277.56C400.869 277.56 398.909 277.56 396.856 277.56H357.656C357.656 277.187 357.563 276.813 357.376 276.44C357.376 275.88 357.376 275.507 357.376 275.32V272.8L363.816 272.52C367.923 272.52 371.283 272.053 373.896 271.12C376.509 270 378.563 268.693 380.056 267.2C382.483 263.093 383.696 255.72 383.696 245.08V124.96C383.696 116 383.229 109.933 382.296 106.76L382.576 107.04C381.269 105.36 379.216 103.213 376.416 100.6C374.923 99.6666 372.963 98.9199 370.536 98.3599C368.296 97.6133 366.056 97.2399 363.816 97.2399H357.656C357.656 96.8666 357.563 96.3999 357.376 95.8399C357.376 95.2799 357.376 94.9066 357.376 94.7199V92.1999H406.376C408.429 92.1999 410.389 92.1999 412.256 92.1999C414.309 92.0133 416.363 91.9199 418.416 91.9199H435.776L436.056 94.4399V96.9599L429.896 97.2399C426.536 97.2399 422.056 98.4533 416.456 100.88L416.736 100.6C415.803 101.16 414.776 102.187 413.656 103.68C412.723 104.987 412.069 106.2 411.696 107.32C410.576 110.12 410.016 116 410.016 124.96V245.08ZM504.656 242.84H504.376C509.229 247.32 514.363 251.8 519.776 256.28C525.376 260.76 529.856 264.12 533.216 266.36C536.389 267.853 540.123 269.253 544.416 270.56C548.896 271.68 553.003 272.613 556.736 273.36C556.736 273.547 556.736 274.2 556.736 275.32C556.923 276.253 557.016 276.907 557.016 277.28H526.496C524.256 277.28 522.016 277.373 519.776 277.56C517.536 277.56 515.296 277.56 513.056 277.56H469.656C469.656 277.187 469.563 276.813 469.376 276.44C469.376 275.88 469.376 275.507 469.376 275.32V272.8C473.856 272.24 477.403 271.12 480.016 269.44C482.629 267.76 483.936 265.893 483.936 263.84C483.936 262.907 483.749 261.787 483.376 260.48C483.003 259.173 482.629 258.053 482.256 257.12V257.4C481.883 256.467 481.043 255.44 479.736 254.32C478.616 253.2 477.496 251.987 476.376 250.68L474.136 248.16V248.44L408.336 183.48L419.536 173.12L429.056 164.44C441.563 153.053 452.016 143.067 460.416 134.48C468.816 125.707 474.603 118.987 477.776 114.32C478.709 112.64 479.549 111.053 480.296 109.56C481.043 107.88 481.416 106.387 481.416 105.08C481.416 103.027 480.483 101.253 478.616 99.7599C476.749 98.0799 473.669 97.2399 469.376 97.2399H465.176C465.176 96.8666 465.083 96.3999 464.896 95.8399C464.896 95.2799 464.896 94.9066 464.896 94.7199V92.1999H506.616C508.296 92.1999 509.976 92.1999 511.656 92.1999C513.336 92.0133 515.109 91.9199 516.976 91.9199H532.656V94.4399V96.9599C530.603 97.1466 528.549 97.4266 526.496 97.7999C524.629 97.9866 523.136 98.3599 522.016 98.9199L519.216 100.04V99.7599C518.843 100.133 518.376 100.413 517.816 100.6L516.696 101.16C515.576 101.72 514.456 102.187 513.336 102.56C512.403 102.933 511.656 103.307 511.096 103.68C508.483 105.173 505.496 107.133 502.136 109.56C498.963 111.987 495.789 114.787 492.616 117.96L464.616 146.8L436.056 174.8L504.656 242.84Z" fill="currentColor"/>
<path d="M253.026 88C276.732 88 297.546 97.1467 315.466 115.44C333.199 134.293 342.066 157.067 342.066 183.76C342.066 211.2 333.106 234.533 315.186 253.76C297.079 272.427 275.612 281.76 250.786 281.76C225.212 281.76 203.746 272.613 186.386 254.32C169.026 236.213 160.346 212.88 160.346 184.32C160.346 170.693 163.052 157.72 168.466 145.4C173.879 132.893 180.879 122.16 189.466 113.2C198.426 105.733 208.412 99.6667 219.426 95C230.626 90.3333 241.826 88 253.026 88ZM250.226 97.8C241.826 97.8 234.266 99.48 227.546 102.84C221.012 106.2 215.319 110.587 210.466 116C204.492 123.84 199.826 133.453 196.466 144.84C193.292 156.227 191.706 169.2 191.706 183.76C191.706 198.32 193.386 211.573 196.746 223.52C200.292 235.28 205.052 245.36 211.026 253.76C215.879 259.36 221.572 263.84 228.106 267.2C234.639 270.373 242.106 271.96 250.506 271.96C268.239 271.96 282.612 265.333 293.626 252.08C305.012 238.453 310.706 216.893 310.706 187.4C310.706 171.72 309.026 158 305.666 146.24C302.492 134.293 297.919 124.307 291.946 116.28C287.092 111.427 281.026 107.133 273.746 103.4C266.466 99.6667 258.626 97.8 250.226 97.8Z" fill="currentColor"/>
<path d="M52.36 245.08C52.36 250.68 52.7333 255.347 53.48 259.08C54.2267 262.813 55.16 265.427 56.28 266.92C59.64 270.653 64.8667 272.52 71.96 272.52L78.68 273.08C78.68 273.267 78.68 273.92 78.68 275.04C78.8667 276.16 78.96 276.907 78.96 277.28H51.52C49.4667 277.28 47.4133 277.373 45.36 277.56C43.4933 277.56 41.5333 277.56 39.48 277.56H0.28C0.28 277.187 0.186667 276.813 0 276.44C0 275.88 0 275.507 0 275.32V272.8L6.72 272.52C10.4533 272.52 13.72 271.867 16.52 270.56C19.5067 269.253 21.84 267.48 23.52 265.24C25.2 262.253 26.04 255.533 26.04 245.08V124.96C26.04 114.133 25.0133 106.853 22.96 103.12C20.9067 101.44 18.48 100.04 15.68 98.9199C13.0667 97.7999 10.08 97.2399 6.72 97.2399H0.28C0.28 96.8666 0.186667 96.3999 0 95.8399C0 95.2799 0 94.9066 0 94.7199V92.1999L67.2 91.9199C75.6 91.9199 83.16 92.4799 89.88 93.5999C96.6 94.5333 102.293 95.7466 106.96 97.2399C111.627 99.1066 116.013 101.347 120.12 103.96C124.227 106.573 127.867 110.027 131.04 114.32C137.387 122.347 140.56 132.147 140.56 143.72C140.56 158.653 135.52 170.88 125.44 180.4C120.587 184.88 114.613 188.427 107.52 191.04C100.613 193.467 92.5867 194.68 83.44 194.68C79.1467 194.68 74.3867 194.4 69.16 193.84C64.12 193.28 58.52 192.253 52.36 190.76V245.08ZM52.36 182.92C61.1333 184.787 68.6 185.72 74.76 185.72C84.6533 185.72 92.96 182.173 99.68 175.08C106.4 167.613 109.76 158.093 109.76 146.52C109.76 138.68 107.893 131.307 104.16 124.4C100.613 117.493 95.9467 112.173 90.16 108.44C87.5467 106.947 84.3733 105.733 80.64 104.8C77.0933 103.68 73.64 103.12 70.28 103.12C64.68 103.12 58.7067 104.053 52.36 105.92V182.92Z" fill="currentColor"/>
</svg>
